# xmcd
#
# Track frame offsets:
#	182
#	20405
#	43890
#	71852
#	92167
#
# Disc length: 1439 seconds
#
# Revision: 2
# Processed by: cddbd v1.4PL0 Copyright (c) Steve Scherf et al.
# Submitted via: EasyCDDAExtractor 5.0.5.1
#
DISCID=42059d05
DTITLE=Salt -N- Pepa - Whatta' Man
DYEAR=1989
DGENRE=Blues
TTITLE0=Whatta Man (Video Remix)
TTITLE1=Whatta Man (Lovebug Remix)
TTITLE2=Whatta Man (12" Danny D)
TTITLE3=Push It (Remix)
TTITLE4=Lets talk about AIDS
EXTD=
EXTT0=
EXTT1=
EXTT2=
EXTT3=
EXTT4=
PLAYORDER=
